<svg xmlns="http://www.w3.org/2000/svg" width="1400" height="760" viewBox="0 0 1400 760"><rect width="1400" height="760" fill="#f4f6f8"/><text x="700" y="55" text-anchor="middle" font-family="Arial" font-size="30" font-weight="700" fill="#172033">EMMTEC SYSTEMS — ENTERPRISE SALES ANALYTICS ARCHITECTURE</text><text x="700" y="88" text-anchor="middle" font-family="Arial" font-size="15" fill="#687386">Portfolio reference architecture • source → warehouse → semantic model → management</text><g font-family="Arial" text-anchor="middle"><rect x="70" y="150" width="250" height="115" rx="16" fill="white" stroke="#d9dee7"/><text x="195" y="190" font-size="19" font-weight="700" fill="#172033">SOURCE SYSTEMS</text><text x="195" y="220" font-size="14" fill="#687386">ERP • CRM • Excel • CSV</text><text x="195" y="242" font-size="13" fill="#687386">Orders / customers / products</text><rect x="380" y="150" width="250" height="115" rx="16" fill="white" stroke="#d9dee7"/><text x="505" y="190" font-size="19" font-weight="700" fill="#172033">BRONZE / RAW</text><text x="505" y="220" font-size="14" fill="#687386">Immutable landing</text><text x="505" y="242" font-size="13" fill="#687386">Source snapshots + audit</text><rect x="690" y="150" width="250" height="115" rx="16" fill="white" stroke="#d9dee7"/><text x="815" y="190" font-size="19" font-weight="700" fill="#172033">SILVER / CLEAN</text><text x="815" y="220" font-size="14" fill="#687386">Validate • standardise</text><text x="815" y="242" font-size="13" fill="#687386">Deduplicate • conform</text><rect x="1000" y="150" width="330" height="115" rx="16" fill="white" stroke="#d9dee7"/><text x="1165" y="190" font-size="19" font-weight="700" fill="#172033">GOLD / WAREHOUSE</text><text x="1165" y="220" font-size="14" fill="#687386">SQL star schema</text><text x="1165" y="242" font-size="13" fill="#687386">FactSales + dimensions</text><path d="M320 207h60M630 207h60M940 207h60" stroke="#2f5bea" stroke-width="4"/><path d="M700 265v70" stroke="#2f5bea" stroke-width="4"/><rect x="480" y="335" width="440" height="125" rx="16" fill="white" stroke="#d9dee7"/><text x="700" y="375" font-size="20" font-weight="700" fill="#172033">SEMANTIC MODEL</text><text x="700" y="405" font-size="14" fill="#687386">Power BI • governed DAX measures</text><text x="700" y="430" font-size="13" fill="#687386">KPI definitions • RLS • certified dataset</text><path d="M700 460v70" stroke="#2f5bea" stroke-width="4"/><rect x="280" y="530" width="840" height="135" rx="18" fill="white" stroke="#d9dee7"/><text x="700" y="570" font-size="21" font-weight="700" fill="#172033">MANAGEMENT CONSUMPTION</text><text x="700" y="602" font-size="14" fill="#687386">Executive KPIs • Revenue/Profit/Units YoY • Country scorecard</text><text x="700" y="627" font-size="14" fill="#687386">Discount governance • Product/Category performance • Operational insights</text></g><text x="70" y="720" font-family="Arial" font-size="13" fill="#687386">Cross-cutting controls: Entra ID • Key Vault • Monitoring • Data Quality • GitHub CI/CD • Audit</text></svg>